<svg xmlns="http://www.w3.org/2000/svg" width="16" height="16">
  <g transform="matrix(0.01777778,0,0,0.01777778,-0.88889649,-0.88961538)" style="fill:#828282;fill-opacity:1">
    <g transform="matrix(38.565517,0,0,38.561202,-18471.673,-2970.273)" style="fill:#828282;fill-opacity:1">
      <g style="fill:#828282;fill-opacity:1">
        <path d="m 495.07373,87.10498 c 0,-0.4165 -0.33789,-0.75391 -0.75391,-0.75391 l -4.77246,0 c -0.41602,0 -0.75391,0.3374 -0.75391,0.75391 l 0,4.77295 1.33105,0 0,5.65186 3.61719,0 0,-5.65186 1.33203,0 0,-4.77295 1e-5,0 z" style="fill:#828282;fill-opacity:1" />
        <circle cx="491.93359" cy="84.090332" r="1.63232" style="fill:#828282;fill-opacity:1" />
      </g>
      <path d="m 491.91846,78.3252 c -3.23145,0 -5.96777,1.12793 -8.20703,3.38379 -2.29785,2.3335 -3.44629,5.0957 -3.44629,8.28467 0,3.18897 1.14844,5.93164 3.44629,8.22705 2.29785,2.29395 5.03418,3.44189 8.20703,3.44189 3.21289,0 5.99805,-1.15674 8.35449,-3.47168 2.21973,-2.19727 3.3291,-4.92969 3.3291,-8.19727 0,-3.26758 -1.12891,-6.02881 -3.3877,-8.28467 -2.25879,-2.25586 -5.02343,-3.38378 -8.29589,-3.38378 z m 0.0303,2.0996 c 2.64844,0 4.89648,0.93408 6.74609,2.80127 1.87012,1.84717 2.80469,4.10352 2.80469,6.76758 0,2.68359 -0.91504,4.91064 -2.74609,6.68066 -1.92773,1.90576 -4.19629,2.8584 -6.80469,2.8584 -2.61035,0 -4.85938,-0.94287 -6.74805,-2.82959 -1.88867,-1.88623 -2.83301,-4.12256 -2.83301,-6.70947 0,-2.58691 0.9541,-4.84229 2.8623,-6.76758 1.83107,-1.86718 4.07032,-2.80127 6.71876,-2.80127 z" style="fill:#828282;fill-opacity:1" />
    </g>
  </g>
</svg>
