<?xml version="1.0" encoding="UTF-8" standalone="no"?>
<!-- Created with Inkscape (http://www.inkscape.org/) -->

<svg
   xmlns:dc="http://purl.org/dc/elements/1.1/"
   xmlns:cc="http://creativecommons.org/ns#"
   xmlns:rdf="http://www.w3.org/1999/02/22-rdf-syntax-ns#"
   xmlns:svg="http://www.w3.org/2000/svg"
   xmlns="http://www.w3.org/2000/svg"
   version="1.1"
   width="128"
   height="45"
   viewBox="0 0 128 45"
   id="svg2">
  <title
     id="title4">Creative Commons “Attribution-Share Alike” license icon</title>
  <description>The contents of this blog are licensed under CC BY-SA unless otherwise stated.</description>
  <metadata
     id="metadata18">
    <rdf:RDF>
      <cc:Work
         rdf:about="">
        <dc:format>image/svg+xml</dc:format>
        <dc:type
           rdf:resource="http://purl.org/dc/dcmitype/StillImage" />
        <dc:title>Creative Commons “Attribution-Share Alike” license icon</dc:title>
      </cc:Work>
    </rdf:RDF>
  </metadata>
  <defs
     id="defs16" />
  <path
     d="m 3.629033,0.4989919 c -2.872742,0 -3.039315,1.6548387 -3.039315,3.4475807 l 0,40.1461694 126.743952,0 0.13609,-39.9647178 c 0,-3.6377419 -1.49008,-3.4022177 -3.1754,-3.4022177 L 3.629033,0.4989919 z m 94.082661,4.21875 c 6.223066,-0.00435 11.291006,5.0331049 11.295366,11.2953631 l 0,0.04536 c 0.004,6.262258 -5.02694,11.334919 -11.250003,11.340726 -6.221613,0.0044 -11.289557,-5.078468 -11.295363,-11.340726 -0.0029,-6.2622582 5.026935,-11.3363711 11.25,-11.340726 z m -30.257057,0.090726 c 6.313065,0 11.431452,5.1231049 11.431452,11.4768141 0,6.35371 -5.118387,11.522178 -11.431452,11.522178 -6.314516,0 -11.431451,-5.167016 -11.431451,-11.522178 C 56.021686,9.9315728 61.140121,4.8084679 67.454637,4.8084679 z M 22.227823,6.3508065 C 30.243629,6.345 36.738145,12.891048 36.743952,20.957661 36.748352,29.024274 30.243629,35.604073 22.227823,35.609879 14.212016,35.614279 7.7175,29.069637 7.711694,21.003024 l 0,-0.04536 C 7.707339,12.889597 14.210565,6.3551613 22.227823,6.3508065 z M 93.084678,34.929435 c 0.368709,0 0.705121,0.0065 1.043346,0.09073 0.336775,0.08274 0.644517,0.22246 0.907259,0.408266 0.264193,0.184355 0.481209,0.436936 0.63508,0.725807 0.155323,0.287419 0.226815,0.631089 0.226815,1.043347 l -1.496976,0 c -0.01306,-0.211936 -0.06206,-0.406452 -0.136089,-0.544355 -0.07694,-0.139355 -0.192701,-0.237702 -0.31754,-0.317541 -0.124839,-0.07984 -0.247137,-0.105604 -0.408266,-0.136088 -0.159678,-0.03339 -0.354194,-0.09073 -0.544355,-0.09073 -0.124839,0 -0.238065,0.02069 -0.362903,0.04536 -0.124839,0.02758 -0.217379,0.07077 -0.317541,0.136089 -0.101613,0.06822 -0.206855,0.173467 -0.272177,0.272177 -0.06532,0.09871 -0.09073,0.210484 -0.09073,0.362903 0,0.139355 0.03992,0.27871 0.09073,0.362903 0.05371,0.08855 0.118306,0.154234 0.272177,0.226815 0.153871,0.07258 0.408992,0.154234 0.680444,0.226814 0.272903,0.07113 0.60496,0.158952 1.043347,0.272178 0.133548,0.02613 0.312096,0.06496 0.544354,0.136089 0.23371,0.06822 0.449638,0.163669 0.680444,0.31754 0.230806,0.152419 0.466694,0.379597 0.635081,0.635081 0.166935,0.255483 0.226814,0.554879 0.226814,0.952621 0,0.326612 -0.05661,0.63 -0.181451,0.907258 -0.124839,0.278709 -0.297581,0.524032 -0.544355,0.725806 -0.248226,0.204677 -0.542903,0.385766 -0.907258,0.498992 -0.365807,0.113226 -0.791129,0.136089 -1.270162,0.136089 -0.389032,0 -0.768266,-0.03883 -1.134072,-0.136089 C 91.722339,42.093137 91.368871,41.938545 91.08871,41.733868 90.81,41.526287 90.617662,41.282053 90.453629,40.962699 90.289597,40.644795 90.174194,40.265562 90.181452,39.828626 l 1.542339,0 c -0.0015,0.239516 0.0051,0.424234 0.09073,0.589718 0.08565,0.166935 0.222097,0.306653 0.362904,0.408266 0.142258,0.103064 0.30883,0.17746 0.498992,0.226814 0.193064,0.04935 0.386491,0.09073 0.589717,0.09073 0.137904,0 0.295404,-0.02359 0.453629,-0.04536 0.158226,-0.02177 0.268912,-0.06931 0.408266,-0.136088 0.136452,-0.06677 0.272904,-0.156049 0.362904,-0.272178 0.0929,-0.116129 0.136088,-0.273629 0.136088,-0.453629 0,-0.191613 -0.05952,-0.333145 -0.181451,-0.453629 -0.120484,-0.120484 -0.303024,-0.23625 -0.498992,-0.31754 -0.19742,-0.07984 -0.386855,-0.121936 -0.635081,-0.181452 -0.251129,-0.06097 -0.517137,-0.154234 -0.771169,-0.226814 -0.264194,-0.06677 -0.52004,-0.13246 -0.77117,-0.226815 -0.248225,-0.09581 -0.483024,-0.209032 -0.680443,-0.362903 -0.198871,-0.150968 -0.331694,-0.360363 -0.453629,-0.589718 -0.120484,-0.229355 -0.181452,-0.492822 -0.181452,-0.816532 0,-0.365807 0.07149,-0.684073 0.226815,-0.952621 0.152419,-0.267097 0.34004,-0.500444 0.589718,-0.680444 0.249677,-0.178548 0.545443,-0.321169 0.861895,-0.408266 0.315,-0.08565 0.639072,-0.09073 0.952621,-0.09073 z m -32.525202,0.136089 3.311492,0 c 0.335323,0 0.63,0.03121 0.907258,0.09073 0.277258,0.05952 0.526936,0.18254 0.725807,0.31754 0.197419,0.136452 0.344758,0.320807 0.453629,0.544355 0.108871,0.225 0.181451,0.487016 0.181451,0.816532 0,0.358549 -0.109597,0.667742 -0.272177,0.907258 -0.159678,0.238065 -0.410807,0.43875 -0.725807,0.589718 0.435484,0.127742 0.781694,0.320081 0.997984,0.635081 0.214839,0.316451 0.31754,0.691331 0.31754,1.134072 0,0.357097 -0.04355,0.689879 -0.181451,0.952621 -0.137903,0.261291 -0.354557,0.469597 -0.589718,0.635081 -0.23371,0.165484 -0.5175,0.283065 -0.816532,0.362903 -0.300484,0.07984 -0.589355,0.136085 -0.907258,0.136085 l -3.402218,0 0,-7.121976 z m 6.169355,0 1.72379,0 1.678428,2.8125 1.633064,-2.8125 1.72379,0 -2.631048,4.400202 0,2.721774 -1.542339,0 0,-2.767137 -2.585685,-4.354839 z m 32.253024,0 1.587705,0 2.63105,7.121976 -1.63307,0 -0.49899,-1.587702 -2.63105,0 -0.589717,1.587702 -1.542339,0 2.676411,-7.121976 z m -36.88004,1.224799 0,1.678427 1.587701,0 c 0.277258,0 0.501896,-0.09617 0.680444,-0.226815 0.178548,-0.133548 0.272177,-0.3375 0.272177,-0.63508 0,-0.165484 -0.03121,-0.30375 -0.09072,-0.408266 -0.05952,-0.104516 -0.172017,-0.167299 -0.272178,-0.226815 -0.100161,-0.05952 -0.188347,-0.112863 -0.31754,-0.136089 -0.129194,-0.02323 -0.270363,-0.04536 -0.408266,-0.04536 l -1.451613,0 z m 37.651209,0.544354 -0.907258,2.585686 1.814514,0 -0.907256,-2.585686 z m -37.651209,2.17742 0,1.950605 1.678427,0 c 0.15242,0 0.270363,-0.01633 0.408266,-0.04536 0.137904,-0.03048 0.258387,-0.06496 0.362904,-0.136089 0.105967,-0.06823 0.208306,-0.153145 0.272177,-0.272177 0.06387,-0.119033 0.09073,-0.267823 0.09073,-0.453629 0,-0.362904 -0.112863,-0.662662 -0.317541,-0.816533 C 64.392101,39.083592 64.115569,39.0121 63.780246,39.0121 l -1.678427,0 z"
     id="path6"
     style="fill:#aab2ab;fill-opacity:1" />
  <path
     d="M 2.404234,0 C 1.08617,0 0,1.0774597 0,2.4042339 L 0,44.455645 C 0,44.756129 0.246774,45 0.544355,45 l 126.653225,0 c 0.29758,0 0.54436,-0.243871 0.54436,-0.544355 l 0,-42.0514111 C 127.74194,1.0774597 126.65577,0 125.3377,0 L 2.404234,0 z m 0,1.0887097 122.933466,0 c 0.72291,0 1.31553,0.5882661 1.31553,1.3155242 l 0,29.2137101 -87.867947,0 c -3.22113,5.861612 -9.434396,9.798387 -16.55746,9.798387 -7.124516,0 -13.339234,-3.93242 -16.55746,-9.798387 l -4.581653,0 0,-29.2137101 c 0,-0.7272581 0.592621,-1.3155242 1.315524,-1.3155242 z m 65.00504,2.5403226 c -3.418548,0 -6.295282,1.1827016 -8.664314,3.5836693 -2.431452,2.4837097 -3.674395,5.4504434 -3.674395,8.8457664 0,3.395322 1.242943,6.311976 3.674395,8.75504 2.43,2.443065 5.306734,3.674395 8.664314,3.674395 3.399678,0 6.353347,-1.254919 8.845767,-3.719758 2.350161,-2.338548 3.538306,-5.230161 3.538306,-8.709677 0,-3.479516 -1.192863,-6.443347 -3.583669,-8.8457664 C 73.821774,4.8117339 70.871371,3.6290323 67.409274,3.6290323 z m 30.257057,0 c -3.418548,0 -6.296734,1.1827016 -8.664315,3.5836693 -2.431451,2.4851613 -3.674395,5.4489924 -3.674395,8.8457664 0,3.396774 1.242944,6.311976 3.674395,8.75504 2.43,2.443065 5.308186,3.674395 8.664315,3.674395 3.399679,0 6.351899,-1.256371 8.845769,-3.719758 2.3458,-2.338548 3.49294,-5.231613 3.49294,-8.709677 0,-3.478065 -1.19286,-6.443347 -3.58367,-8.8457664 -2.3879,-2.4009677 -5.29294,-3.5836693 -8.755039,-3.5836693 z M 22.227823,4.21875 c -4.605968,0 -8.512984,1.6138306 -11.703629,4.8538306 C 7.249355,12.424355 5.625,16.376371 5.625,20.957661 c 0,4.581291 1.624355,8.543105 4.899194,11.839718 3.273387,3.295161 7.180403,4.944556 11.703629,4.944556 4.578387,0 8.5275,-1.667177 11.88508,-4.989919 3.164517,-3.155806 4.763105,-7.10129 4.763105,-11.794355 0,-4.693064 -1.635605,-8.64508 -4.85383,-11.8850804 C 30.803952,5.8325806 26.890403,4.21875 22.227823,4.21875 z m 45.226814,1.6330645 c 2.801613,0 5.165202,1.0066936 7.121976,2.9939516 1.978549,1.9669359 2.993952,4.3777019 2.993952,7.2127019 0,2.856774 -0.965323,5.237782 -2.903226,7.121976 -2.039516,2.029354 -4.451734,3.039314 -7.212702,3.039314 -2.759516,0 -5.124556,-1.030282 -7.121975,-3.039314 -1.998871,-2.007581 -3.039315,-4.366815 -3.039315,-7.121976 0,-2.752258 1.020121,-5.163024 3.039315,-7.2127019 1.936451,-1.987258 4.320362,-2.9939516 7.121975,-2.9939516 z m 30.257057,0 c 2.801616,0 5.163746,1.0066936 7.121976,2.9939516 1.97564,1.9669359 2.94859,4.3762499 2.94859,7.2127019 0,2.856774 -0.96532,5.237782 -2.90323,7.121976 -2.03951,2.027903 -4.40637,3.039314 -7.167336,3.039314 -2.759516,0 -5.16992,-1.031734 -7.167339,-3.039314 -1.997419,-2.009033 -2.993952,-4.368267 -2.993952,-7.121976 0,-2.75371 1.020121,-5.163024 3.039315,-7.2127019 1.933548,-1.9901613 4.320363,-2.9939516 7.121976,-2.9939516 z M 22.273186,7.2127016 c 3.775645,0 6.96629,1.3692339 9.616935,4.0372984 2.650645,2.668065 3.991936,5.88121 3.991936,9.707661 0,3.855484 -1.292662,7.07371 -3.90121,9.616936 -2.747903,2.739193 -5.987177,4.128024 -9.707661,4.128024 -3.720484,0 -6.924194,-1.3725 -9.616936,-4.082661 -2.6927417,-2.710162 -4.037298,-5.944718 -4.037298,-9.662299 0,-3.716129 1.360887,-6.942338 4.082661,-9.707661 2.608549,-2.681129 5.795928,-4.0372984 9.571573,-4.0372984 z m 45.181451,0.8165323 c -0.953709,0 -1.72379,0.7642742 -1.72379,1.7237903 0,0.9595158 0.770081,1.7691528 1.72379,1.7691528 0.952258,0 1.723791,-0.809637 1.723791,-1.7691528 0,-0.9595161 -0.771533,-1.7237903 -1.723791,-1.7237903 z m 30.166331,1.4516129 c -2.739194,0 -4.95,1.6831452 -5.443548,4.8084682 l -0.952621,0 2.449596,2.449596 2.449597,-2.449596 -0.907258,0 c 0.246774,-1.701291 1.411331,-2.17742 2.767137,-2.17742 1.846452,0 2.812499,1.361613 2.812499,3.991936 0,2.506935 -1.148225,4.173387 -2.903225,4.173387 -1.538709,0 -2.584959,-0.597339 -2.676411,-2.268145 l -3.13004,0 c 0.43258,3.218225 2.795806,4.85383 5.443548,4.85383 3.848228,0 6.441528,-2.923185 6.441528,-6.668347 0,-3.838064 -2.40822,-6.7137092 -6.350802,-6.7137092 z M 64.914315,12.157258 c -0.439839,0 -0.816532,0.372339 -0.816532,0.816532 l 0,5.080645 1.40625,0 0,6.033267 3.855846,0 0,-6.033267 1.40625,0 0,-5.080645 c 0,-0.444193 -0.375242,-0.816532 -0.816532,-0.816532 l -5.035282,0 z M 17.64617,15.78629 c -1.384839,0 -2.565363,0.468508 -3.492944,1.40625 -0.927581,0.937742 -1.360887,2.169799 -1.360887,3.765121 0,1.621452 0.459435,2.932621 1.360887,3.855847 0.9,0.924677 2.088508,1.360887 3.583669,1.360887 1.939355,0 3.385162,-0.85246 4.354839,-2.585685 L 20.050403,22.5 c -0.415161,0.971129 -1.118467,1.451613 -2.086693,1.451613 -1.467581,0 -2.177419,-1.005242 -2.177419,-2.993952 0,-1.987258 0.709838,-2.993951 2.177419,-2.993951 0.830322,0 1.488629,0.449274 1.905242,1.360887 l 2.177419,-1.134073 C 21.159436,16.566169 19.697299,15.78629 17.64617,15.78629 z m 9.616935,0 c -1.410968,0 -2.581331,0.468508 -3.492944,1.40625 -0.913064,0.937742 -1.360887,2.169799 -1.360887,3.765121 0,1.621452 0.462339,2.932621 1.360887,3.855847 0.9,0.924677 2.08996,1.360887 3.58367,1.360887 1.936451,0 3.386613,-0.85246 4.354839,-2.585685 L 29.621976,22.5 c -0.387581,0.971129 -1.070202,1.451613 -2.041331,1.451613 -1.496613,0 -2.222782,-1.005242 -2.222782,-2.993952 0,-1.987258 0.726169,-2.993951 2.222782,-2.993951 0.804194,0 1.397904,0.449274 1.814516,1.360887 l 2.268146,-1.134073 C 30.779274,16.566169 29.309879,15.78629 27.263105,15.78629 z m 65.821573,19.143145 c 0.368709,0 0.705121,0.0065 1.043346,0.09073 0.336775,0.08274 0.644517,0.22246 0.907259,0.408266 0.264193,0.184355 0.481209,0.436936 0.63508,0.725807 0.155323,0.287419 0.226815,0.631089 0.226815,1.043347 l -1.496976,0 c -0.01306,-0.211936 -0.06206,-0.406452 -0.136089,-0.544355 -0.07694,-0.139355 -0.192701,-0.237702 -0.31754,-0.317541 -0.124839,-0.07984 -0.247137,-0.105604 -0.408266,-0.136088 -0.159678,-0.03339 -0.354194,-0.09073 -0.544355,-0.09073 -0.124839,0 -0.238065,0.02069 -0.362903,0.04536 -0.124839,0.02758 -0.217379,0.07077 -0.317541,0.136089 -0.101613,0.06822 -0.206855,0.173467 -0.272177,0.272177 -0.06532,0.09871 -0.09073,0.210484 -0.09073,0.362903 0,0.139355 0.03992,0.27871 0.09073,0.362903 0.05371,0.08855 0.118306,0.154234 0.272177,0.226815 0.153871,0.07258 0.408992,0.154234 0.680444,0.226814 0.272903,0.07113 0.60496,0.158952 1.043347,0.272178 0.133548,0.02613 0.312096,0.06496 0.544354,0.136089 0.23371,0.06822 0.449638,0.163669 0.680444,0.31754 0.230806,0.152419 0.466694,0.379597 0.635081,0.635081 0.166935,0.255483 0.226814,0.554879 0.226814,0.952621 0,0.326612 -0.05661,0.63 -0.181451,0.907258 -0.124839,0.278709 -0.297581,0.524032 -0.544355,0.725806 -0.248226,0.204677 -0.542903,0.385766 -0.907258,0.498992 -0.365807,0.113226 -0.791129,0.136089 -1.270162,0.136089 -0.389032,0 -0.768266,-0.03883 -1.134072,-0.136089 C 91.722339,42.093137 91.368871,41.938545 91.08871,41.733868 90.81,41.526287 90.617662,41.282053 90.453629,40.962699 90.289597,40.644795 90.174194,40.265562 90.181452,39.828626 l 1.542339,0 c -0.0015,0.239516 0.0051,0.424234 0.09073,0.589718 0.08565,0.166935 0.222097,0.306653 0.362904,0.408266 0.142258,0.103064 0.30883,0.17746 0.498992,0.226814 0.193064,0.04935 0.386491,0.09073 0.589717,0.09073 0.137904,0 0.295404,-0.02359 0.453629,-0.04536 0.158226,-0.02177 0.268912,-0.06931 0.408266,-0.136088 0.136452,-0.06677 0.272904,-0.156049 0.362904,-0.272178 0.0929,-0.116129 0.136088,-0.273629 0.136088,-0.453629 0,-0.191613 -0.05952,-0.333145 -0.181451,-0.453629 -0.120484,-0.120484 -0.303024,-0.23625 -0.498992,-0.31754 -0.19742,-0.07984 -0.386855,-0.121936 -0.635081,-0.181452 -0.251129,-0.06097 -0.517137,-0.154234 -0.771169,-0.226814 -0.264194,-0.06677 -0.52004,-0.13246 -0.77117,-0.226815 -0.248225,-0.09581 -0.483024,-0.209032 -0.680443,-0.362903 -0.198871,-0.150968 -0.331694,-0.360363 -0.453629,-0.589718 -0.120484,-0.229355 -0.181452,-0.492822 -0.181452,-0.816532 0,-0.365807 0.07149,-0.684073 0.226815,-0.952621 0.152419,-0.267097 0.34004,-0.500444 0.589718,-0.680444 0.249677,-0.178548 0.545443,-0.321169 0.861895,-0.408266 0.315,-0.08565 0.639072,-0.09073 0.952621,-0.09073 z m -32.525202,0.136089 3.311492,0 c 0.335323,0 0.63,0.03121 0.907258,0.09073 0.277258,0.05952 0.526936,0.18254 0.725807,0.31754 0.197419,0.136452 0.344758,0.320807 0.453629,0.544355 0.108871,0.225 0.181451,0.487016 0.181451,0.816532 0,0.358549 -0.109597,0.667742 -0.272177,0.907258 -0.159678,0.238065 -0.410807,0.43875 -0.725807,0.589718 0.435484,0.127742 0.781694,0.320081 0.997984,0.635081 0.214839,0.316451 0.31754,0.691331 0.31754,1.134072 0,0.357097 -0.04355,0.689879 -0.181451,0.952621 -0.137903,0.261291 -0.354557,0.469597 -0.589718,0.635081 -0.23371,0.165484 -0.5175,0.283065 -0.816532,0.362903 -0.300484,0.07984 -0.589355,0.136085 -0.907258,0.136085 l -3.402218,0 0,-7.121976 z m 6.169355,0 1.72379,0 1.678428,2.8125 1.633064,-2.8125 1.72379,0 -2.631048,4.400202 0,2.721774 -1.542339,0 0,-2.767137 -2.585685,-4.354839 z m 32.253024,0 1.587705,0 2.63105,7.121976 -1.63307,0 -0.49899,-1.587702 -2.63105,0 -0.589717,1.587702 -1.542339,0 2.676411,-7.121976 z m -36.88004,1.224799 0,1.678427 1.587701,0 c 0.277258,0 0.501896,-0.09617 0.680444,-0.226815 0.178548,-0.133548 0.272177,-0.3375 0.272177,-0.63508 0,-0.165484 -0.03121,-0.30375 -0.09072,-0.408266 -0.05952,-0.104516 -0.172017,-0.167299 -0.272178,-0.226815 -0.100161,-0.05952 -0.188347,-0.112863 -0.31754,-0.136089 -0.129194,-0.02323 -0.270363,-0.04536 -0.408266,-0.04536 l -1.451613,0 z m 37.651209,0.544354 -0.907258,2.585686 1.814514,0 -0.907256,-2.585686 z m -37.651209,2.17742 0,1.950605 1.678427,0 c 0.15242,0 0.270363,-0.01633 0.408266,-0.04536 0.137904,-0.03048 0.258387,-0.06496 0.362904,-0.136089 0.105967,-0.06823 0.208306,-0.153145 0.272177,-0.272177 0.06387,-0.119033 0.09073,-0.267823 0.09073,-0.453629 0,-0.362904 -0.112863,-0.662662 -0.317541,-0.816533 C 64.392101,39.083592 64.115569,39.0121 63.780246,39.0121 l -1.678427,0 z"
     id="path10" />
</svg>
