<?xml version="1.0" encoding="UTF-8" standalone="no"?>
<!-- Created with Inkscape (http://www.inkscape.org/) -->

<svg
   xmlns:dc="http://purl.org/dc/elements/1.1/"
   xmlns:cc="http://creativecommons.org/ns#"
   xmlns:rdf="http://www.w3.org/1999/02/22-rdf-syntax-ns#"
   xmlns:svg="http://www.w3.org/2000/svg"
   xmlns="http://www.w3.org/2000/svg"
   version="1.1"
   width="100%"
   height="100%"
   viewBox="0 0 15.999999 16"
   id="Layer_1"
   xml:space="preserve"><metadata
     id="metadata17"><rdf:RDF><cc:Work
         rdf:about=""><dc:format>image/svg+xml</dc:format><dc:type
           rdf:resource="http://purl.org/dc/dcmitype/StillImage" /><dc:title></dc:title></cc:Work></rdf:RDF></metadata><defs
     id="defs15" /><g
     transform="matrix(0.0319936,0,0,0.0319936,-2.0316284e-7,0.0016)"
     id="g3"
     style="fill:#828282;fill-opacity:1"><path
       d="M 498.5,81.6 326.4,232.1 499.6,415.8 c 0.3,-1.1 0.5,-2.3 0.5,-3.5 V 87.7 c -0.2,-2.2 -0.7,-4.2 -1.6,-6.1 z"
       id="path5"
       style="fill:#828282;fill-opacity:1" /><path
       d="m 485.9,73.1 c -0.3,0 -0.4,0 -0.6,0 H 14.7 c -0.3,0 -0.4,0 -0.6,0.1 L 250,279.4 485.9,73.1 z"
       id="path7"
       style="fill:#828282;fill-opacity:1" /><path
       d="m 254.9,294.6 c -1.4,1.3 -3.1,1.8 -4.9,1.8 -1.8,0 -3.4,-0.6 -4.9,-1.8 L 181.8,239.3 7.1,424.8 c 2.3,1.4 4.8,2.1 7.5,2.1 h 470.7 c 2.8,0 5.4,-0.9 7.5,-2.1 L 318,239.2 254.9,294.6 z"
       id="path9"
       style="fill:#828282;fill-opacity:1" /><path
       d="M 1.4,81.6 C 0.5,83.5 0,85.6 0,87.7 v 324.6 c 0,1.3 0.3,2.4 0.5,3.5 L 173.7,232.1 1.4,81.6 z"
       id="path11"
       style="fill:#828282;fill-opacity:1" /></g></svg>