<?xml version="1.0" encoding="UTF-8" standalone="no"?>
<!-- Created with Inkscape (http://www.inkscape.org/) -->

<svg
   xmlns:dc="http://purl.org/dc/elements/1.1/"
   xmlns:cc="http://creativecommons.org/ns#"
   xmlns:rdf="http://www.w3.org/1999/02/22-rdf-syntax-ns#"
   xmlns:svg="http://www.w3.org/2000/svg"
   xmlns="http://www.w3.org/2000/svg"
   version="1.1"
   width="16"
   height="16"
   viewBox="0 0 32 32"
   id="RSSicon">
  <metadata
     id="metadata34">
    <rdf:RDF>
      <cc:Work
         rdf:about="">
        <dc:format>image/svg+xml</dc:format>
        <dc:type
           rdf:resource="http://purl.org/dc/dcmitype/StillImage" />
        <dc:title></dc:title>
      </cc:Work>
    </rdf:RDF>
  </metadata>
  <defs
     id="defs3">
    <linearGradient
       x1="0.085000001"
       y1="0.085000001"
       x2="0.91500002"
       y2="0.91500002"
       id="RSSg">
      <stop
         id="stop6"
         style="stop-color:#e3702d;stop-opacity:1"
         offset="0" />
      <stop
         id="stop8"
         style="stop-color:#ea7d31;stop-opacity:1"
         offset="0.1071" />
      <stop
         id="stop10"
         style="stop-color:#f69537;stop-opacity:1"
         offset="0.35030001" />
      <stop
         id="stop12"
         style="stop-color:#fb9e3a;stop-opacity:1"
         offset="0.5" />
      <stop
         id="stop14"
         style="stop-color:#ea7c31;stop-opacity:1"
         offset="0.70160002" />
      <stop
         id="stop16"
         style="stop-color:#de642b;stop-opacity:1"
         offset="0.88660002" />
      <stop
         id="stop18"
         style="stop-color:#d95b29;stop-opacity:1"
         offset="1" />
    </linearGradient>
  </defs>
  <path
     d="M 3.4375,0 C 1.533125,0 0,1.533125 0,3.4375 l 0,9.125 C 0,14.466875 1.533125,16 3.4375,16 l 9.125,0 C 14.466875,16 16,14.466875 16,12.5625 l 0,-9.125 C 16,1.533125 14.466875,0 12.5625,0 L 3.4375,0 z M 2.75,2.375 a 10.9375,10.9375 0 0 1 10.9375,10.9375 l -2.1875,0 a 8.75,8.75 0 0 0 -8.75,-8.75 l 0,-2.1875 z m 0,3.6875 a 7.25,7.25 0 0 1 7.25,7.25 l -2.125,0 A 5.125,5.125 0 0 0 2.75,8.1875 l 0,-2.125 z m 1.5,4.25 c 0.8284271,0 1.5,0.671573 1.5,1.5 0,0.828427 -0.6715729,1.5 -1.5,1.5 -0.8284271,0 -1.5,-0.671573 -1.5,-1.5 0,-0.828427 0.6715729,-1.5 1.5,-1.5 z"
     transform="scale(2,2)"
     id="rect20"
     style="fill:#828282;fill-opacity:1" />
</svg>
