<?xml version="1.0" encoding="UTF-8" standalone="no"?>
<!-- Created with Inkscape (http://www.inkscape.org/) -->

<svg
   xmlns:dc="http://purl.org/dc/elements/1.1/"
   xmlns:cc="http://creativecommons.org/ns#"
   xmlns:rdf="http://www.w3.org/1999/02/22-rdf-syntax-ns#"
   xmlns:svg="http://www.w3.org/2000/svg"
   xmlns="http://www.w3.org/2000/svg"
   xmlns:sodipodi="http://sodipodi.sourceforge.net/DTD/sodipodi-0.dtd"
   xmlns:inkscape="http://www.inkscape.org/namespaces/inkscape"
   width="744.09448819"
   height="1052.3622047"
   id="svg2"
   version="1.1"
   inkscape:version="0.48.5 r10040"
   sodipodi:docname="drawing.svg"
   inkscape:export-filename="/home/charles/drawing.png"
   inkscape:export-xdpi="90"
   inkscape:export-ydpi="90">
  <defs
     id="defs4">
    <filter
       inkscape:label="Simple blur"
       inkscape:menu="ABCs"
       inkscape:menu-tooltip="Simple Gaussian blur, same as the blur slider in Fill and Stroke dialog"
       color-interpolation-filters="sRGB"
       id="filter3942">
      <feGaussianBlur
         stdDeviation="3"
         id="feGaussianBlur3944" />
    </filter>
  </defs>
  <sodipodi:namedview
     id="base"
     pagecolor="#ffffff"
     bordercolor="#666666"
     borderopacity="1.0"
     inkscape:pageopacity="0.0"
     inkscape:pageshadow="2"
     inkscape:zoom="0.49497475"
     inkscape:cx="222.55246"
     inkscape:cy="702.30563"
     inkscape:document-units="px"
     inkscape:current-layer="layer5"
     showgrid="false"
     inkscape:window-width="1600"
     inkscape:window-height="834"
     inkscape:window-x="0"
     inkscape:window-y="27"
     inkscape:window-maximized="1" />
  <metadata
     id="metadata7">
    <rdf:RDF>
      <cc:Work
         rdf:about="">
        <dc:format>image/svg+xml</dc:format>
        <dc:type
           rdf:resource="http://purl.org/dc/dcmitype/StillImage" />
        <dc:title></dc:title>
      </cc:Work>
    </rdf:RDF>
  </metadata>
  <g
     inkscape:groupmode="layer"
     id="layer5"
     inkscape:label="bg">
    <path
       style="fill:#000000;fill-opacity:1;stroke:#000000;stroke-width:1px;stroke-linecap:butt;stroke-linejoin:miter;stroke-opacity:1"
       d="M -74.825199,129.7922 630.88909,32.649341 788.03195,689.7922 25.174803,884.07791 z"
       id="path13120"
       inkscape:connector-curvature="0" />
  </g>
  <g
     inkscape:label="plus"
     inkscape:groupmode="layer"
     id="layer1"
     style="display:inline">
    <path
       style="fill:#ffffff;fill-opacity:1;fill-rule:evenodd;stroke:none"
       d="m 210.12836,146.60959 0,131.34375 -131.343747,0 0,248.5 131.343747,0 0,131.3125 248.49999,0 0,-131.3125 131.3125,0 0,-248.5 -131.3125,0 0,-131.34375 -248.49999,0 z"
       id="rect2985"
       inkscape:connector-curvature="0" />
  </g>
  <g
     inkscape:groupmode="layer"
     id="layer4"
     inkscape:label="s"
     style="display:none">
    <path
       style="fill:#c2c2c2;fill-opacity:1;stroke:none"
       id="path4302"
       d="m 57.327473,465.41314 c -1.07985,-12.63306 -3.28803,-25.14024 -5.11186,-37.68047 -3.57208,-23.60409 -4.57972,-47.5093 -5.43698,-71.33879 -0.56524,-14.27403 -0.17828,-28.95125 4.16884,-42.69829 2.41682,-7.64279 4.03014,-9.9901 7.68471,-16.94716 3.62059,-5.37221 4.83327,-7.86349 9.584,-12.25921 1.82053,-1.68448 3.77571,-3.24784 5.88301,-4.55592 9.44368,-5.86203 14.99513,-9.80822 24.559097,-12.50165 2.38051,-0.6704 4.83137,-1.05973 7.24706,-1.58959 13.4921,-1.98624 27.21543,-2.81465 40.82832,-1.84595 1.48584,0.35061 3.02004,0.53776 4.45754,1.05183 4.36029,1.55926 7.50411,5.03486 8.99951,9.34881 0.3208,0.92529 0.4939,1.89533 0.7408,2.84299 0.8975,4.97764 1.1485,10.10723 -0.3099,15.01083 -0.3465,1.16527 -0.829,2.28571 -1.2435,3.42857 -2.381,5.0003 -5.53616,9.63563 -9.45008,13.56943 -2.86251,2.87704 -4.29542,3.84291 -7.47394,6.33398 -9.71411,6.34373 -19.69663,12.50131 -30.40506,17.03061 -4.26698,1.80478 -6.43429,2.50073 -10.83566,4.06582 -9.971197,3.31716 -20.196387,5.76828 -30.211607,8.93499 -1.07207,0.34185 -2.16764,0.61728 -3.21621,1.02557 -0.8875,0.34557 -3.40534,1.70349 -2.57853,1.23078 3.46714,-1.98225 6.90877,-4.02462 10.50468,-5.76237 0.60922,-0.29441 -1.0417,0.8755 -1.47232,1.39741 -1.15246,1.3968 -1.22826,2.08935 -1.83832,3.78727 -1.72952,8.82022 3.57556,16.63188 7.93653,23.82385 13.40528,21.29339 30.389537,39.92319 47.336787,58.39574 15.6803,16.61399 31.57993,33.02943 48.50763,48.38607 10.4543,9.48401 13.0625,11.44915 23.8118,20.36265 18.0474,14.43623 37.0809,27.62132 56.7338,39.76937 6.759,4.2483 3.5478,2.28719 9.6171,5.91019 0,0 -11.8448,7.62069 -11.8448,7.62069 l 0,0 c -5.7319,-3.87656 -2.6992,-1.79298 -9.0857,-6.26878 -18.937,-12.95403 -37.7016,-26.19104 -55.4382,-40.77 -3.9059,-3.30018 -7.8679,-6.53515 -11.7178,-9.90055 -9.3889,-8.20737 -15.0038,-13.63894 -24.04832,-22.34449 -12.42959,-11.96381 -24.60234,-24.17662 -36.40706,-36.76058 -10.35953,-10.84792 -20.790227,-21.64379 -30.437667,-33.14251 -2.52512,-3.00966 -4.93392,-6.11514 -7.37475,-9.19355 -7.03884,-8.87743 -5.48104,-6.90123 -11.51472,-15.15406 -3.73489,-5.70452 -8.01832,-11.72478 -9.27275,-18.59343 -0.4361,-2.38788 -0.21457,-3.52646 -0.0478,-5.8777 0.41793,-1.63369 0.60935,-2.93883 1.52689,-4.38975 0.39389,-0.62287 0.81832,-1.27959 1.43678,-1.68038 7.18742,-4.65776 12.50092,-8.53426 20.18825,-10.61 9.93249,-2.94012 20.029117,-5.32858 29.825257,-8.72448 4.57021,-1.68519 6.43915,-2.29537 10.85579,-4.22693 1.6561,-0.72427 6.23155,-3.5268 4.91735,-2.28579 -2.03106,1.91796 -4.83108,2.81531 -7.14129,4.38588 -2.77277,1.88503 11.2692,-6.65867 8.59849,-5.21925 3.17253,-2.37862 4.62882,-3.31604 7.48603,-6.07136 3.88383,-3.74534 7.01566,-8.21359 9.4941,-12.98868 0.96015,-2.49964 1.5461,-3.67699 2.04876,-6.27598 0.72376,-3.74219 0.25113,-7.57782 -0.24687,-11.31377 -1.25942,-5.26481 -3.10077,-9.09852 -8.62125,-11.03589 -1.34916,-0.47348 -2.78356,-0.65529 -4.17534,-0.98293 -13.40154,-1.09765 -26.95543,-0.28133 -40.212217,1.91141 -2.39875,0.58606 -4.83715,1.02875 -7.19627,1.75818 -2.26057,0.69895 -4.69129,3.86596 -6.63655,2.51885 -1.74174,-1.20617 6.53981,-5.16217 5.37451,-3.39283 -1.35947,2.06416 -4.14069,2.72705 -6.00487,4.34994 -4.87849,4.24707 -6.22813,6.79931 -10.00676,12.06684 -3.80657,6.88128 -5.45808,9.15459 -8.0119,16.74963 -4.59004,13.65072 -5.20888,28.27285 -4.65392,42.53293 0.65808,23.75772 1.60232,47.57357 5.6454,71.04458 2.19337,12.27216 4.44116,24.53592 6.9193,36.75426 0,0 -13.23738,6.98312 -13.23738,6.98312 z"
       inkscape:connector-curvature="0" />
    <path
       style="fill:#c2c2c2;fill-opacity:1;stroke:none"
       id="path4304"
       d="m 222.94152,361.10817 c -5.9509,-0.19601 -11.9031,-0.24106 -17.8552,-0.10315 -6.7905,0.44386 -13.6469,1.22597 -20.0722,3.60813 -3.4828,1.2912 -5.5472,2.5344 -8.7741,4.26607 2.8167,-1.56042 5.499,-3.39278 8.45,-4.68127 1.2444,-0.54335 -2.2173,1.57098 -3.2754,2.4219 -4.3311,3.48275 -6.5794,6.50999 -9.3076,11.28139 -3.8763,8.06675 -4.4241,17.09521 -4.4632,25.90074 1.0852,12.02819 5.4336,19.14699 14.4945,27.07026 1.818,1.58978 3.7966,2.98602 5.6949,4.47902 5.3413,3.71633 11.2741,6.35791 17.4909,8.21842 3.1005,0.92792 6.715,1.94499 10.0314,1.47262 1.4779,-0.21051 2.8242,-0.96856 4.2363,-1.45284 -2.8023,1.51132 -5.2844,3.91175 -8.4069,4.53396 -1.5872,0.31628 2.3954,-2.20982 3.3397,-3.52422 1.2139,-1.68983 2.1882,-3.54852 3.0888,-5.4242 3.5557,-7.40584 4.9132,-14.94443 6.4078,-22.94351 2.7626,-19.197 3.821,-38.60143 4.3386,-57.97483 0.1481,-6.17835 0.1695,-12.35928 0.1164,-18.53895 -0.024,-2.78672 -0.173,-5.57731 -0.068,-8.36237 4.6454,-2.04845 8.9002,-5.50157 13.9362,-6.14535 1.4946,-0.19106 1.2265,2.75261 1.8407,4.1285 3.5967,8.05698 6.8422,16.26126 10.4752,24.30267 1.6998,3.76235 3.5081,7.47472 5.2621,11.21209 11.479,23.88258 23.6666,47.4169 35.0432,71.34853 4.493,9.38582 8.5448,18.97006 12.7815,28.47077 0,0 -12.5252,7.00846 -12.5252,7.00846 l 0,0 c -3.6703,-9.78048 -7.1466,-19.63728 -11.373,-29.2005 -10.6683,-24.26824 -22.5822,-47.93937 -34.7612,-71.48002 -4.7622,-9.66221 -9.3956,-19.40452 -14.2616,-29.01457 -0.9527,-1.88168 -1.9325,-3.75107 -2.9791,-5.58224 -0.6767,-1.18416 -3.0735,-2.42087 -2.1875,-3.45788 3.1461,-3.68261 8.0418,-5.40075 12.0628,-8.10112 -0.8159,2.72271 -0.6015,5.69028 -0.7091,8.51272 -0.2403,6.30625 -0.5233,12.61062 -0.7967,18.91551 -0.9733,19.42076 -1.8808,38.86612 -4.3405,58.17039 -1.3279,8.47104 -2.3328,15.10497 -5.6806,23.06881 -0.9546,2.27094 -3.3711,7.83763 -5.7883,9.4944 -5.0881,3.4874 -10.6948,6.1502 -16.0421,9.22529 -1.4878,0.34062 -2.9398,0.92949 -4.4632,1.02186 -3.3172,0.20113 -6.9977,-0.90534 -10.0658,-1.93167 -6.2164,-2.07942 -12.1577,-4.91214 -17.4874,-8.75304 -7.4138,-5.97564 -14.8962,-12.06221 -18.6426,-21.13113 -1.62244,-3.92731 -1.90097,-7.11482 -2.57537,-11.25038 -0.14587,-8.92322 0.29319,-18.13511 3.90797,-26.42788 1.5622,-3.01906 1.7925,-3.81041 3.8696,-6.48042 6.2073,-7.97898 15.895,-12.36968 24.3644,-17.25197 3.4373,-1.72338 5.126,-2.70812 8.8459,-3.97394 6.5779,-2.2384 13.5285,-2.93762 20.4172,-3.41381 6.1779,-0.19037 12.3586,-0.16056 18.5371,-0.34482 0,0 -12.1309,8.81357 -12.1309,8.81357 z"
       inkscape:connector-curvature="0" />
    <path
       style="fill:#c2c2c2;fill-opacity:1;stroke:none"
       id="path4306"
       d="m 325.30552,244.92621 c -0.1272,3.76228 -0.1342,7.52725 -0.1757,11.29109 -0.09,7.82708 -0.1873,15.65432 -0.2211,23.48192 -0.2967,12.65802 -0.057,25.30403 0.4951,37.95041 0.8757,16.9149 1.7826,33.82425 2.4701,50.74822 0.5437,16.41951 0.6597,32.84696 0.8199,49.27306 0.054,12.999 0.083,25.9982 0.2039,38.99682 0.2413,6.10689 0.035,12.20381 -0.1304,18.3069 -4.4835,2.10756 -8.6844,4.97054 -13.4505,6.32269 -0.8046,0.22827 0,-1.67283 0.01,-2.50912 0.02,-1.36427 0.069,-2.72803 0.087,-4.09232 0.075,-5.72561 0.1136,-11.41643 0.3663,-17.13946 0.5902,-11.93153 2.4792,-23.82267 5.6958,-35.33411 0.7361,-2.63426 1.6127,-5.22723 2.419,-7.84084 4.445,-13.83053 10.9711,-26.91164 19.0386,-38.98408 1.6296,-2.43862 3.4108,-4.77245 5.1163,-7.15868 6.546,-8.36476 13.8162,-16.2398 22.68,-22.19558 5.4633,-3.67092 21.1442,-11.60151 23.0809,-12.62862 5.8316,-1.8029 13.6073,-4.44082 19.8026,-3.50418 3.4257,0.51792 4.5741,1.45986 7.52,3.05446 1.0119,0.98293 2.1487,1.8518 3.0356,2.9488 4.3254,5.35007 6.7819,13.83603 7.9532,20.48399 0.4157,2.35937 0.6419,4.74823 0.9628,7.12234 1.1098,10.66224 1.6447,21.41966 1.4065,32.14216 -0.062,2.81028 -0.1076,5.62738 -0.394,8.42373 -0.2886,2.81754 -0.8857,5.5949 -1.3285,8.39234 -2.7233,10.86478 -7.1383,21.13992 -14.3397,29.80709 -4.1855,5.03739 -7.0225,7.33769 -11.8041,11.70721 -11.5704,9.30193 -24.5302,16.89815 -37.9375,23.24531 -5.1481,2.43716 -8.0901,3.53723 -13.3502,5.66154 -10.3656,4.31182 -21.3656,6.17999 -32.4858,7.03551 -5.9953,0.17824 -12.1558,1.18964 -18.0075,-0.5264 0,0 12.1759,-8.35199 12.1759,-8.35199 l 0,0 c 5.6024,1.45834 11.4916,0.60339 17.2003,0.48033 10.8961,-0.88995 21.6515,-2.80283 31.8006,-7.04863 5.3975,-2.2117 7.9523,-3.16424 13.2316,-5.71141 2.2221,-1.07212 4.2076,-2.72652 6.5888,-3.37227 1.8136,-0.49182 -6.3348,4.03018 -4.8359,2.89691 2.1508,-1.62615 4.533,-2.92102 6.7995,-4.38153 2.1432,-1.62379 4.2863,-3.24757 6.4295,-4.87136 4.9167,-4.35566 7.6081,-6.44551 11.9241,-11.47486 7.2523,-8.45101 11.8631,-18.51684 14.6489,-29.24255 0.4631,-2.75333 1.0762,-5.48559 1.3893,-8.25999 0.632,-5.6017 0.5428,-11.45195 0.4033,-17.06974 -0.192,-7.72525 -0.683,-15.45037 -1.5488,-23.12972 -1.3603,-8.748 -3.0159,-19.46897 -9.0267,-26.46285 -0.8406,-0.97809 -1.9137,-1.72945 -2.8705,-2.59417 -2.9095,-1.46903 -3.6961,-2.182 -7.0557,-2.55582 -6.3867,-0.71067 -13.1726,1.82795 -19.1192,3.73842 2.0708,-1.42187 5.3248,-1.91568 6.2124,-4.26561 0.7928,-2.09904 -3.9653,2.11127 -5.8554,3.32038 -6.5857,4.2129 -12.3165,9.48656 -17.5347,15.28169 -1.9382,2.15249 -3.7346,4.42859 -5.6019,6.64289 -1.7229,2.36376 -3.5212,4.67442 -5.1688,7.09128 -8.119,11.90957 -14.5587,24.89473 -19.0377,38.59493 -0.7799,2.57431 -1.6248,5.12983 -2.3398,7.72295 -3.1458,11.41014 -5.0813,23.14793 -5.6076,34.97393 -0.1355,5.6206 -0.1455,11.21063 0.084,16.82958 0.053,1.29876 0.1335,2.59641 0.2256,3.89297 0.049,0.69599 0.7631,1.67311 0.199,2.08373 -4.0765,2.96731 -8.8018,4.92122 -13.2026,7.38182 0.5552,-1.91736 0.6467,-3.92343 0.7791,-5.90804 0.2805,-4.20691 0.2845,-8.4193 0.3281,-12.63373 0.1368,-13.06342 0.1934,-26.12768 0.1909,-39.19178 0.046,-16.45322 -0.031,-32.91128 -0.556,-49.35725 -0.575,-16.88066 -1.6781,-33.73327 -2.754,-50.58832 -0.6207,-12.58439 -1.1163,-25.16226 -0.9951,-37.7664 -0.034,-7.75251 -0.1308,-15.50465 -0.221,-23.25663 -0.041,-3.70413 -0.047,-7.40947 -0.1758,-11.11198 0,0 13.3602,-6.80738 13.3602,-6.80738 z"
       inkscape:connector-curvature="0" />
    <path
       style="fill:#c2c2c2;fill-opacity:1;stroke:none"
       id="path4310"
       d="m 474.80822,255.02774 c -0.053,1.57955 -0.032,5.401 -0.056,7.47609 l -13.2475,5.92918 4e-4,-4.19845 c -0.023,-1.66496 0,-0.86518 -0.056,-2.39944 l 13.3603,-6.80738 z"
       inkscape:connector-curvature="0"
       sodipodi:nodetypes="ccccccc" />
    <path
       style="fill:#c2c2c2;fill-opacity:1;stroke:none"
       id="path4312"
       d="m 619.82142,326.75526 c -6.173,0.14303 -12.2531,-0.6989 -18.3381,-1.63529 -11.4098,-1.72619 -22.9561,-2.19449 -34.4755,-2.50924 -4.9026,-0.0946 -7.3875,-0.37015 -12.2716,0.45918 -6.5579,1.11355 -13.2724,3.49483 -18.9512,6.97194 -1.7766,1.08781 3.7257,-1.86481 5.5886,-2.79722 -9.6552,6.79102 -17.1931,15.81909 -21.6694,26.78112 -0.8534,2.08986 -1.4693,4.26901 -2.204,6.40351 -2.339,9.11816 -4.1269,18.60045 -2.0308,27.9652 1.4855,6.63699 3.204,9.46534 6.0546,15.61529 1.6887,2.61289 3.21,5.34189 5.066,7.83867 8.1949,11.02398 19.4299,21.08672 30.5013,29.14227 2.9321,2.13339 6.0014,4.0716 9.0021,6.1074 11.063,6.95314 22.5436,13.28882 34.8946,17.65095 6.8838,2.43125 8.5528,2.653 15.4899,4.32688 7.9998,1.51745 16.1361,2.67705 24.2997,2.5933 1.5251,-0.0156 3.0576,-0.0237 4.5703,-0.21901 1.3408,-0.17309 2.6391,-0.58804 3.9587,-0.88206 1.1304,-0.57911 4.5107,-2.33696 3.3911,-1.73733 -3.1071,1.66406 -5.9646,3.96361 -9.3539,4.93082 -1.2889,0.3678 1.9329,-1.89058 2.6556,-3.01937 3.6979,-5.77526 4.2715,-12.98521 5.2952,-19.55238 2.8551,-24.28729 2.423,-48.91428 -2.0203,-72.99646 -1.294,-7.01335 -3.0843,-13.92596 -4.6265,-20.88894 -8.3081,-31.88252 -20.7339,-62.50015 -34.6685,-92.29605 -6.8618,-14.67247 -14.1645,-28.75993 -21.4993,-43.18766 -10.7126,-20.40062 -21.4168,-40.84613 -33.474,-60.49441 0,0 11.706,-6.73751 11.706,-6.73751 l 0,0 c 10.4694,20.60216 20.1781,41.58263 30.5454,62.23644 9.2059,18.90453 11.8625,24.15134 20.8899,43.57367 13.863,29.82639 27.2718,60.03807 35.7479,91.91901 1.7448,6.88752 3.7565,13.71286 5.2343,20.66256 5.0412,23.70688 5.7439,48.1996 4.1456,72.30925 -0.7738,6.53981 -1.0155,13.85843 -4.1546,19.84848 -3.9836,7.60142 -13.5638,10.87745 -21.1981,14.03361 -1.3366,0.21298 -2.6609,0.52937 -4.01,0.63893 -1.493,0.12126 -2.9959,0.0812 -4.4936,0.0517 -8.0997,-0.15948 -16.1345,-1.40839 -24.0357,-3.13803 -2.4799,-0.65536 -4.986,-1.21842 -7.4397,-1.96608 -15.2192,-4.63748 -29.3451,-12.09203 -42.6161,-20.78066 -3.0191,-2.05685 -6.1054,-4.01855 -9.0575,-6.17053 -8.6971,-6.33988 -16.748,-13.48838 -24.0578,-21.38701 -2.3883,-2.58065 -4.7797,-5.17109 -6.9277,-7.95495 -1.9415,-2.51629 -3.5447,-5.27638 -5.317,-7.91457 -2.8048,-5.93095 -4.8409,-9.46402 -6.4337,-15.86143 -2.3701,-9.51962 -0.6882,-19.11305 1.5959,-28.45362 0.7155,-2.1834 1.3031,-4.41297 2.1466,-6.5502 4.3957,-11.13759 11.7599,-20.49644 21.4434,-27.50923 5.4276,-3.26224 16.3769,-10.58017 24.0522,-13.70369 8.1031,-3.29767 16.7474,-4.56457 25.4538,-3.96056 11.6409,0.38135 23.2961,0.87075 34.8501,2.43379 6.2638,0.82183 12.5297,1.46312 18.8553,1.01142 0,0 -12.1095,8.79812 -12.1095,8.79812 z"
       inkscape:connector-curvature="0" />
    <path
       style="fill:#c2c2c2;fill-opacity:1;stroke:none"
       id="path4314"
       d="m 162.65932,514.76374 c -0.1667,4.96485 -0.2024,9.93263 -0.2699,14.89943 -0.147,6.59245 0.1529,13.2418 -1.0979,19.7597 -0.9913,5.16598 -2.1933,8.33438 -3.8173,13.35206 -4.0461,10.21398 -9.24419,20.09461 -15.68611,29.01851 -4.12702,5.71711 -6.40728,7.98728 -11.09838,13.2263 -6.16349,6.57431 -12.81732,12.68082 -19.87404,18.28132 0,0 -13.397297,5.34387 -13.397297,5.34387 l 0,0 c 7.505047,-5.56043 14.527497,-11.77463 21.028657,-18.48129 4.59555,-5.04086 7.10436,-7.5237 11.1478,-13.03329 6.42122,-8.74954 11.61585,-18.46335 15.55764,-28.55637 1.6698,-5.13991 2.70296,-7.70869 3.66224,-12.98584 1.16397,-6.40314 0.85028,-12.93837 0.77767,-19.40458 -0.0672,-4.87513 -0.10158,-9.7513 -0.26991,-14.62437 0,0 13.33683,-6.79545 13.33683,-6.79545 z"
       inkscape:connector-curvature="0" />
    <path
       style="fill:#c2c2c2;fill-opacity:1;stroke:none"
       id="path4316"
       d="m 167.71002,518.80435 c -0.8865,8.85027 2.669,17.21626 5.7023,25.33763 5.2608,13.88874 10.7378,27.76011 14.9627,42.01301 3.0955,10.44256 4.6819,17.71114 7.219,28.32057 6.5089,30.17655 8.4528,61.06508 9.6972,91.83229 0.5263,17.68158 -0.1811,35.68667 -5.9277,52.58935 -0.9036,2.65785 -2.0736,5.21757 -3.1104,7.82636 -4.4396,9.30912 -8.8909,18.79753 -15.1041,27.08765 -4.4002,5.37788 -7.3759,5.01197 -16.0029,9.39036 0,0 12.2197,-8.67867 12.2197,-8.67867 l 0,0 c -4.0913,2.38446 -8.1897,4.75684 -12.274,7.15339 -0.389,0.22826 0.8359,-0.36603 1.1877,-0.64822 0.5535,-0.44395 1.0011,-1.00583 1.5016,-1.50874 6.9144,-8.0614 11.5953,-17.80384 16.3727,-27.20484 2.8681,-6.99046 3.7127,-8.44276 5.7161,-15.77422 3.9849,-14.58288 5.0028,-29.68915 4.771,-44.75586 -1.0431,-30.716 -2.6665,-61.57232 -9.5599,-91.63484 -1.1587,-4.76168 -2.2085,-9.55121 -3.4762,-14.28505 -5.0654,-18.91529 -12.1816,-37.21199 -19.9883,-55.14482 -3.3321,-8.07503 -7.36122,-16.19711 -7.24327,-25.1199 0,0 13.33677,-6.79545 13.33677,-6.79545 z"
       inkscape:connector-curvature="0" />
    <path
       style="fill:#c2c2c2;fill-opacity:1;stroke:none"
       id="path4318"
       d="m 179.50502,634.85951 c -7.8909,-1.74961 -14.5274,-6.54274 -21.2061,-10.83425 -14.42748,-10.00891 -29.5151,-18.99845 -44.69056,-27.81152 -1.8183,-1.0407 -3.6366,-2.08139 -5.4549,-3.12209 0,0 11.5838,-7.49627 11.5838,-7.49627 l 0,0 c 1.74213,1.0916 3.48426,2.18319 5.22639,3.27479 14.89764,9.32639 29.97645,18.35861 44.84417,27.73245 6.7115,4.0146 13.7977,8.84155 21.8281,9.44332 0,0 -12.1309,8.81357 -12.1309,8.81357 z"
       inkscape:connector-curvature="0" />
    <path
       style="fill:#c2c2c2;fill-opacity:1;stroke:none"
       id="path4320"
       d="m 248.41342,587.00526 c 22.2745,-13.07874 9.7717,-6.07199 5.5106,-1.97246 -2.0468,1.96916 -2.7709,2.91406 -4.6282,5.07156 -3.8443,5.00025 -7.2531,10.46165 -9.2279,16.49233 -0.4007,1.22389 -0.6882,2.48202 -1.0323,3.72302 -1.1276,5.9204 -2.4647,12.21684 -0.8496,18.19348 0.2972,1.09972 0.8091,2.12985 1.2136,3.19477 3.5657,5.99338 9.1624,9.99921 15.5845,12.54032 1.4338,0.56731 2.9269,0.97115 4.3903,1.45672 6.3588,1.24673 13.095,3.10298 19.6367,2.068 4.0334,-0.63814 4.8243,-1.39585 8.3574,-3.21776 -2.834,1.41537 -5.3479,3.95249 -8.5021,4.2461 -1.7033,0.15856 2.3948,-2.45023 3.4735,-3.778 4.4967,-5.53539 7.7318,-11.83922 10.6641,-18.2908 2.844,-6.31225 4.4782,-12.96774 5.6805,-19.74727 0.7281,-3.89472 1.4901,-7.78263 2.4024,-11.6387 0,0 13.2431,-6.34769 13.2431,-6.34769 l 0,0 c -0.9927,3.83559 -1.7848,7.71808 -2.5464,11.60558 -1.293,6.97125 -3.0087,13.8158 -6.0058,20.28625 -2.1839,4.89524 -4.4762,9.53994 -7.3879,14.05466 -0.8191,1.27007 -4.9677,7.57941 -6.3768,8.60556 -5.0035,3.64384 -10.4965,6.56309 -15.7448,9.84463 -3.7469,1.62243 -4.4786,2.26429 -8.6594,2.71777 -6.6768,0.7242 -13.4673,-1.15883 -19.9317,-2.48268 -1.5032,-0.52425 -3.0386,-0.96415 -4.5097,-1.57275 -6.8547,-2.83584 -12.4472,-6.97955 -16.3324,-13.35875 -0.4422,-1.14925 -0.9963,-2.26146 -1.3264,-3.44775 -1.7138,-6.15876 -0.5453,-12.63977 0.6213,-18.76716 0.3158,-1.27843 0.5699,-2.57373 0.9474,-3.8353 1.8451,-6.16515 5.2741,-11.71171 8.9657,-16.92214 2.0496,-2.48646 4.0785,-5.0392 6.4802,-7.20505 5.0995,-4.59848 12.2982,-7.02197 17.5849,-10.8712 0,0 -11.6948,9.35471 -11.6948,9.35471 z"
       inkscape:connector-curvature="0" />
    <path
       style="fill:#c2c2c2;fill-opacity:1;stroke:none"
       id="path4322"
       d="m 397.42142,596.86047 c -4.3788,-2.17507 -9.1301,-3.16912 -13.931,-3.8505 -6.8391,-0.7339 -13.7361,-0.84907 -20.6067,-0.67193 -2.9333,0.34407 -4.7845,0.3997 -7.6051,1.37977 -1.2914,0.44873 -4.9307,2.35473 -3.7413,1.68051 14.1193,-8.00405 8.2571,-4.80448 4.6927,-0.88925 -1.1911,1.30837 -2.1817,2.78608 -3.2726,4.17912 -6.5522,10.30732 -8.324,22.41292 -9.4031,34.33739 -0.2542,5.26844 -1.0575,11.89521 2.5797,16.36704 2.3974,2.94757 4.7633,3.64809 8.146,5.40286 2.0583,0.7222 4.0782,1.56513 6.175,2.16659 7.9462,2.27937 16.2726,3.16416 24.4813,3.82529 2.8587,0.23023 5.7204,0.45494 8.5872,0.53405 2.6523,0.0732 5.3065,-0.0516 7.9597,-0.0775 -1.5247,-1.02843 15.2584,-0.96004 12.8928,-4.90257 -1.21,-2.01654 -5.6042,4.05144 -6.764,2.00564 -1.3227,-2.33302 2.902,-4.54542 3.9167,-7.02793 2.9359,-7.18295 3.604,-13.32395 4.9767,-20.93357 3.7079,-30.55343 3.2368,-61.4219 3.3362,-92.14514 -0.075,-20.09658 0.1054,-40.20998 -0.751,-60.29388 -0.3213,-7.53381 -0.6613,-12.1186 -1.1445,-19.43599 -0.786,-8.32828 -0.3689,-4.44544 -1.2137,-11.65247 0,0 12.4568,-6.47955 12.4568,-6.47955 l 0,0 c 0.3928,7.47767 0.2072,3.45466 0.5315,12.07017 0.4983,26.85314 0.4285,53.70121 0.3943,80.55813 0.028,16.24954 0.012,32.48882 -0.2536,48.73665 -0.1705,10.45017 -0.2562,19.87359 -0.8899,30.27684 -0.26,4.26962 -0.7036,8.52607 -1.0554,12.78911 -1.0288,6.56946 -1.9645,14.62579 -4.1744,21.00624 -0.8843,2.55334 -1.5661,5.43583 -3.5201,7.30226 -0.7203,0.68805 -16.4021,12.92844 -22.5715,14.91034 -2.2585,0.72552 -4.6865,0.73861 -7.0297,1.10791 -2.6325,-0.0261 -5.2674,0.0338 -7.8977,-0.0782 -3.5123,-0.1496 -14.2349,-1.08594 -17.5778,-1.48489 -5.389,-0.64314 -10.8012,-1.45917 -16.0382,-2.93422 -2.1807,-0.61424 -4.2811,-1.48462 -6.4216,-2.22693 -3.8926,-1.95082 -6.2484,-2.52725 -8.9711,-5.89244 -3.841,-4.74722 -2.9878,-11.69877 -2.6398,-17.28611 1.2453,-12.05861 2.8574,-24.32369 9.0324,-35.00668 1.0384,-1.44829 1.9741,-2.97594 3.1151,-4.34486 5.3665,-6.43881 11.3856,-8.72694 19.5028,-13.30659 1.2236,-0.69033 2.5853,-1.11759 3.9323,-1.51686 2.9015,-0.86008 4.784,-0.88023 7.7667,-1.14712 6.9826,-0.15726 14.0047,-0.0958 20.9471,0.73572 4.9747,0.7916 9.8205,2.00209 14.4931,3.92177 0,0 -12.4423,8.29176 -12.4423,8.29176 z"
       inkscape:connector-curvature="0" />
    <path
       style="fill:#c2c2c2;fill-opacity:1;stroke:none"
       id="path4336"
       d="m 588.32652,576.58678 c 5.0983,4.20795 9.355,9.2071 13.2396,14.526 5.1055,7.57519 9.7186,15.56382 12.8144,24.19156 0.5713,1.59238 1.0144,3.2279 1.5217,4.84185 1.1284,6.01926 3.0035,12.28244 2.4706,18.48704 -0.2754,3.20752 -0.8516,4.1553 -1.951,7.06298 -0.6492,0.94319 -1.1958,1.96595 -1.9476,2.82956 -0.7644,0.87804 -1.5886,1.73967 -2.5722,2.36234 -7.3956,4.68172 -14.2795,9.68522 -22.8443,11.40056 -1.4421,0.2888 -2.9083,0.43984 -4.3624,0.65976 -10.5255,1.09347 -21.1202,0.96552 -31.6868,1.00276 -7.2955,-0.49283 -14.6936,-2.01734 -21.0154,-5.87141 -4.325,-2.6367 -5.1298,-3.80001 -8.7785,-7.3089 -3.0802,-3.84646 -4.306,-4.8891 -6.369,-9.46672 -3.8181,-8.4722 -4.6164,-18.06158 -5.5153,-27.18018 -0.07,-9.65195 1.4095,-19.31333 6.1004,-27.877 2.6046,-4.75477 4.3067,-6.38927 7.7159,-10.44256 1.5204,-1.34807 2.9435,-2.81474 4.5613,-4.0442 1.6233,-1.23359 3.3595,-2.32071 5.1344,-3.32391 16.8432,-9.51989 11.6348,-7.40754 22.7102,-11.16824 0,0 -10.9547,8.53929 -10.9547,8.53929 l 0,0 c -10.5353,3.83121 -3.4299,1.72604 1.1352,-2.36998 3.004,-2.69532 -13.5792,8.6918 -9.88,6.99899 -3.5212,3.92737 -5.2779,5.50208 -7.9947,10.1505 -4.8459,8.29107 -6.5198,17.76037 -6.4949,27.25515 0.896,8.95419 1.6986,18.22924 5.5351,26.51739 2.0226,4.36949 3.2061,5.4086 6.1553,9.11245 3.6567,3.41161 4.2979,4.40099 8.6299,6.91031 6.2592,3.62571 13.4632,5.06826 20.6135,5.36348 10.5838,-0.009 21.2203,0.0289 31.7345,-1.3319 3.4668,-0.66669 4.8756,-0.78085 8.1259,-1.98041 1.1728,-0.43287 4.4615,-2.22288 3.431,-1.51497 -2.8892,1.98477 -6.0277,3.57951 -9.0416,5.36926 0.8924,-0.68803 1.8613,-1.28688 2.6772,-2.06409 0.7904,-0.75295 1.4099,-1.6671 2.1149,-2.50065 1.2238,-2.66239 1.8936,-3.62525 2.3062,-6.6254 0.8351,-6.07395 -0.9854,-12.29519 -2.0737,-18.19852 -0.4766,-1.58956 -0.8917,-3.19885 -1.4297,-4.7687 -2.9309,-8.55226 -7.4777,-16.47326 -12.6938,-23.81968 -4.0226,-5.13724 -8.3822,-10.0702 -13.7946,-13.79884 0,0 12.673,-7.92497 12.673,-7.92497 z"
       inkscape:connector-curvature="0" />
    <path
       style="fill:#c2c2c2;fill-opacity:1;stroke:none"
       id="path4340"
       d="m 493.42282,584.46453 c -6.3561,14.53918 -11.7684,29.46286 -17.6172,44.20798 -4.667,11.00481 -11.0116,21.15918 -17.4799,31.16908 -1.9142,3.22377 -4.3994,6.02757 -6.9299,8.76946 0,0 -13.4957,5.63021 -13.4957,5.63021 l 0,0 c 2.6479,-2.706 5.2762,-5.45758 7.3212,-8.66629 6.8545,-9.97526 13.5767,-20.11122 18.3888,-31.26969 5.9531,-14.34483 11.6727,-28.81575 16.4006,-43.61616 0,0 13.4121,-6.22459 13.4121,-6.22459 z"
       inkscape:connector-curvature="0" />
    <path
       style="fill:#c2c2c2;fill-opacity:1;stroke:none"
       id="path4342"
       d="m 496.02132,531.80954 c -0.073,1.72305 -0.062,3.44827 -0.061,5.17245 0,0 -13.2391,6.74566 -13.2391,6.74566 l 0,0 c 0,-1.70359 0.014,-3.40831 -0.061,-5.11074 0,0 13.3602,-6.80737 13.3602,-6.80737 z"
       inkscape:connector-curvature="0" />
    <path
       style="fill:#c2c2c2;fill-opacity:1;stroke:none"
       id="path6629"
       d="m 471.66532,350.96381 c -0.3727,5.91447 -0.2122,11.84107 0.067,17.75503 0.4816,8.49453 0.6821,16.9994 0.9335,25.50247 0.1951,5.76325 0.2442,11.52844 0.2319,17.29441 0.05,5.53 -0.9884,10.95922 -2.1249,16.34332 -1.2019,5.67693 -2.6695,11.29532 -4.3955,16.83468 -1.0453,3.52131 -2.1984,7.00645 -3.541,10.42524 -1.2938,3.10654 -2.4817,6.25257 -3.527,9.45113 -0.4982,1.75661 -0.2508,0.91207 -0.7391,2.53451 0,0 -9.4565,4.44373 -9.4565,4.44373 l 0,0 c 0.5814,-1.60995 0.3041,-0.75747 0.8153,-2.56276 1.0303,-3.2164 2.2278,-6.37431 3.4933,-9.50469 1.3515,-3.45767 2.7016,-6.91926 3.7912,-10.47117 1.8172,-5.49396 3.284,-11.09586 4.4849,-16.7568 1.0695,-5.32905 2.2067,-10.67393 2.1794,-16.14078 -0.018,-5.79858 0.011,-11.59679 0.01,-17.39536 -0.062,-8.50099 -0.3467,-17.00033 -0.8979,-25.48428 -0.3232,-5.8187 -0.5234,-11.64097 -0.7506,-17.46357 0,0 9.4306,-4.80511 9.4306,-4.80511 z"
       inkscape:connector-curvature="0" />
  </g>
</svg>
